<svg height="100" viewBox="0 0 100 100" width="100" xmlns="http://www.w3.org/2000/svg"><rect fill="#19486f" height="53" rx="9.12" width="53" x="23.5" y="25.99"/><g fill="#2e73b8"><rect height="53" rx="9.12" width="53" x="23.5" y="23.51"/><path d="m60 14.4h4v13.65h-4z"/><path d="m36 14.4h4v13.65h-4z"/><path d="m54 14.4h4v13.65h-4z"/><path d="m42 14.4h4v13.65h-4z"/><path d="m48 14.4h4v13.65h-4z"/><path d="m14.4 60h18.1v4h-18.1z"/><path d="m14.4 42h18.1v4h-18.1z"/><path d="m14.4 54h18.1v4h-18.1z"/><path d="m14.4 48h18.1v4h-18.1z"/><path d="m14.4 36h18.1v4h-18.1z"/><path d="m36 69.88h4v15.72h-4z"/><path d="m60 69.88h4v15.72h-4z"/><path d="m42 69.88h4v15.72h-4z"/><path d="m54 69.88h4v15.72h-4z"/><path d="m48 69.88h4v15.72h-4z"/><path d="m69.67 54h15.94v4h-15.94z"/><path d="m69.67 36h15.94v4h-15.94z"/><path d="m69.67 48h15.94v4h-15.94z"/><path d="m69.67 42h15.94v4h-15.94z"/><path d="m69.67 60h15.94v4h-15.94z"/></g><path d="m55.89 38 3 21.18c1 6.71.14 12.93-8.77 12.93h-6.48c-8.43 0-9.73-6.22-8.77-12.93l3-21.18z" fill="#fff"/><path d="m37.92 36a8.16 8.16 0 0 1 7.86-7.18h2.22a8.16 8.16 0 0 1 7.89 7.18z" fill="#fff"/><path d="m41.92 55.49-6.65 3.22-7.6-18.69 4.31-2.09z" fill="#fff"/><path d="m58.81 60.69h-1.61v-3h1.62a4.19 4.19 0 0 0 4.18-4.19v-4.37a4.19 4.19 0 0 0 -4.19-4.19h-3v-3h3a7.2 7.2 0 0 1 7.19 7.19v4.37a7.2 7.2 0 0 1 -7.19 7.19z" fill="#fff"/><path d="m50.52 66.48h13.98v3h-13.98z" fill="#fff"/><path d="m70 72.19h-2.34a4.16 4.16 0 0 1 -4.16-4.19v-.11a4.16 4.16 0 0 1 4.16-4.16h2.34z" fill="#fff"/><path d="m72.72 67.4h-5.5a1.5 1.5 0 0 1 0-3h5.5a1.5 1.5 0 0 1 0 3z" fill="#fff"/><path d="m72.72 71.57h-5.5a1.5 1.5 0 0 1 0-3h5.5a1.5 1.5 0 0 1 0 3z" fill="#fff"/></svg>