<svg clip-rule="evenodd" fill-rule="evenodd" stroke-linejoin="round" stroke-miterlimit="2" viewBox="0 0 64 64" xmlns="http://www.w3.org/2000/svg"><path d="m-320-64h1280v800h-1280z" fill="none"/><path d="m31.413 26.463c3.991 1.537 7.262 5.189 7.43 9.714.239 6.468-6.379 11.427-11.701 16.688-2.086 2.009-4.942 3.153-7.842 3.135-8.317-.155-14.62-11.625-7.763-18.74 3.923-3.972 7.61-8.964 11.931-10.816.337-.145.681-.268 1.028-.371.016 1.283.124 2.918.495 4.281-.7.283-1.356.69-1.933 1.232-4.472 4.311-10.91 8.453-10.504 13.891.257 3.451 3.395 6.412 6.969 6.39 1.757-.033 3.469-.744 4.732-1.96 5.087-5.029 12.486-10.214 9.87-16.115-.515-1.162-1.386-2.1-2.445-2.767-.279-1.209-.513-2.876-.267-4.562zm1.174 11.045c-3.991-1.537-7.262-5.189-7.43-9.715-.239-6.467 6.379-11.426 11.701-16.688 2.086-2.008 4.942-3.152 7.842-3.134 8.317.154 14.62 11.624 7.763 18.739-3.923 3.972-7.61 8.964-11.931 10.816-.337.145-.681.268-1.028.371-.016-1.283-.124-2.918-.495-4.28.7-.283 1.356-.691 1.933-1.233 4.472-4.311 10.91-8.453 10.504-13.891-.257-3.45-3.395-6.412-6.969-6.389-1.757.032-3.469.744-4.732 1.96-5.087 5.028-12.486 10.213-9.87 16.114.515 1.163 1.386 2.1 2.445 2.768.279 1.208.513 2.876.267 4.562z"/></svg>