<svg height="48pt" viewBox="0 0 48 48" width="48pt" xmlns="http://www.w3.org/2000/svg" xmlns:xlink="http://www.w3.org/1999/xlink"><linearGradient id="a" gradientUnits="userSpaceOnUse" x1=".84939" x2="47.240565" y1="1.942755" y2="49.753185"><stop offset=".01304347826" stop-color="#feac5e"/><stop offset=".53043478261" stop-color="#c779d0"/><stop offset=".99565217391" stop-color="#4bc0c8"/></linearGradient><path d="m25.137 17.699c-.124-.147-.3-.237-.49-.253s-.379.043-.526.167l-4.228 3.567 11.477 13.603 4.228-3.567c.147-.124.237-.301.253-.491.016-.189-.043-.379-.167-.526l-.31-.367-2.206 1.861c-.304.257-.76.218-1.017-.086-.256-.305-.218-.76.087-1.017l2.206-1.861-.621-.736-2.206 1.862c-.304.256-.76.218-1.017-.087-.256-.304-.218-.76.087-1.016l2.206-1.862-.621-.735-2.206 1.861c-.304.257-.76.218-1.017-.086-.256-.304-.218-.76.087-1.017l2.205-1.861-.62-.735-2.206 1.861c-.304.257-.76.218-1.017-.086-.256-.305-.218-.76.087-1.017l2.205-1.861-.62-.736-2.206 1.862c-.304.257-.76.218-1.017-.086-.257-.305-.218-.76.086-1.017l2.206-1.861-.62-.736-2.206 1.861c-.304.257-.76.219-1.017-.086-.257-.304-.218-.76.086-1.017l2.206-1.861-.62-.735-2.206 1.861c-.304.257-.76.218-1.017-.086-.257-.304-.218-.76.086-1.017zm-4.452 12.253.184-.155c.406-.342.457-.95.115-1.356l-3.257-3.86c-.205-.243-.308-.559-.281-.877.027-.319.182-.613.424-.818l.736-.62.184-.155 11.477 13.603-.184.155-.735.621c-.243.204-.559.307-.877.28-.319-.027-.613-.181-.818-.424l-3.257-3.86c-.342-.406-.95-.458-1.356-.115l-.183.155zm22.675-8.138c0-.866.704-1.57 1.57-1.57.867 0 1.57.704 1.57 1.57v21.546c0 1.733-1.407 3.14-3.14 3.14h-38.72c-1.733 0-3.14-1.407-3.14-3.14v-9.941c0-.867.703-1.57 1.57-1.57.866 0 1.57.703 1.57 1.57v8.895c0 .578.468 1.046 1.046 1.046h36.628c.578 0 1.046-.468 1.046-1.046zm-38.72 2.186c0 .866-.704 1.57-1.57 1.57-.867 0-1.57-.704-1.57-1.57v-19.36c0-1.733 1.407-3.14 3.14-3.14h38.72c1.733 0 3.14 1.407 3.14 3.14v7.755c0 .867-1.407 1.57-3.14 1.57v-1.57-6.709c0-.578-.468-1.046-1.046-1.046h-36.628c-.578 0-1.046.468-1.046 1.046zm5.755-10.035c-.866 0-1.569-.703-1.569-1.57 0-.866.703-1.569 1.569-1.569h31.396 1.569v3.139h-1.569zm26.605-5.965c0-1.104.896-2 2-2s2 .896 2 2-.896 2-2 2-2-.896-2-2zm-21.933 29.839c-.304.257-.76.219-1.017-.086-.257-.304-.218-.76.086-1.017.305-.256.76-.218 1.017.087.257.304.218.76-.086 1.016zm.821-1.637c-.171-.203-.063-.576.242-.833l3.309-2.792c.304-.256.69-.3.861-.097.172.203.063.576-.241.833l-3.309 2.792c-.304.256-.69.3-.862.097zm4.062-5.629-7.721 6.514c-.048.04-.08.099-.082.164-.009.064.013.127.053.175l1.862 2.206c.04.048.099.08.163.082.064.009.128-.013.176-.054l7.72-6.514zm11.248 6.244 5.331-4.498c.437-.369.714-.899.759-1.472.052-.572-.132-1.141-.501-1.578l-10.547-12.501c-.369-.437-.898-.714-1.471-.759-.573-.052-1.142.132-1.579.501l-4.963 4.188-.552.465-.735.62c-.537.453-.872 1.101-.931 1.799s.162 1.393.615 1.93l2.947 3.492-8.273 6.98c-.341.288-.554.701-.588 1.145-.041.444.099.886.387 1.227l1.862 2.206c.288.342.7.555 1.145.589.443.041.885-.099 1.227-.388l8.272-6.979 2.947 3.493c.453.536 1.101.871 1.799.93s1.393-.162 1.93-.614l.735-.621z" fill="url(#a)" fill-rule="evenodd"/></svg>