<svg fill="none" height="48" viewBox="0 0 48 48" width="48" xmlns="http://www.w3.org/2000/svg"><path d="m4.19067 22.5401c.27687-.9317 1.26388-1.2758 2.23504-1.3148 2.21709-.0888 7.29579-.2253 17.57429-.2253s15.3572.1365 17.5743.2253c.9712.039 1.9582.3831 2.235 1.3148.1121.377.1907.8566.1907 1.4599s-.0786 1.0829-.1907 1.4599c-.2768.9317-1.2638 1.2758-2.235 1.3148-2.2171.0888-7.2958.2253-17.5743.2253s-15.3572-.1365-17.57429-.2253c-.97116-.039-1.95817-.3831-2.23504-1.3148-.11206-.377-.19067-.8566-.19067-1.4599s.07861-1.0829.19067-1.4599z" fill="#a6cfff"/><path d="m17 31c3.866 0 7-3.134 7-7s-3.134-7-7-7-7 3.134-7 7 3.134 7 7 7z" fill="#1575e5"/><path d="m43.8093 9.54009c-.2768-.93166-1.2638-1.27582-2.235-1.31474-2.2171-.08885-7.2958-.22535-17.5743-.22535s-15.3572.1365-17.5743.22535c-.97115.03892-1.95816.38308-2.23503 1.31474-.11206.37705-.19067.85661-.19067 1.45991s.07861 1.0829.19067 1.4599c.27687.9317 1.26388 1.2758 2.23504 1.3148 2.21709.0888 7.29579.2253 17.57429.2253s15.3572-.1365 17.5743-.2253c.9712-.039 1.9582-.3831 2.235-1.3148.1121-.377.1907-.8566.1907-1.4599s-.0786-1.08286-.1907-1.45991z" fill="#a6cfff"/><path d="m31 18c-3.866 0-7-3.134-7-7 0-3.86599 3.134-7 7-7s7 3.13401 7 7c0 3.866-3.134 7-7 7z" fill="#1575e5"/><path d="m43.8093 35.5401c-.2768-.9317-1.2638-1.2758-2.235-1.3148-2.2171-.0888-7.2958-.2253-17.5743-.2253s-15.3572.1365-17.5743.2253c-.97115.039-1.95816.3831-2.23503 1.3148-.11206.377-.19067.8566-.19067 1.4599s.07861 1.0829.19067 1.4599c.27687.9317 1.26388 1.2758 2.23504 1.3148 2.21709.0888 7.29579.2253 17.57429.2253s15.3572-.1365 17.5743-.2253c.9712-.039 1.9582-.3831 2.235-1.3148.1121-.377.1907-.8566.1907-1.4599s-.0786-1.0829-.1907-1.4599z" fill="#a6cfff"/><path d="m31 44c-3.866 0-7-3.134-7-7s3.134-7 7-7 7 3.134 7 7-3.134 7-7 7z" fill="#1575e5"/></svg>