<svg fill="none" height="24" viewBox="0 0 24 24" width="24" xmlns="http://www.w3.org/2000/svg"><g stroke="#141b34" stroke-width="1.5"><path d="m14 6v-.5c0-1.40446 0-2.10669-.3371-2.61114-.1459-.21838-.3334-.40588-.5518-.5518-.5044-.33706-1.2066-.33706-2.6111-.33706-1.40446 0-2.10669 0-2.61114.33706-.21838.14592-.40588.33342-.5518.5518-.33706.50445-.33706 1.20668-.33706 2.61114v.5"/><g stroke-linecap="round"><path d="m11 16.5h-1.48375c-1.02397 0-1.98008-.5021-2.54744-1.3378l-.60078-.8849c-.96918-1.4275-1.54762-3.0754-1.67976-4.78533l-.18381-2.37866c-.06727-.87058.63511-1.61331 1.52568-1.61331h8.93976c.8905 0 1.5929.74273 1.5256 1.61331l-.1071 1.38669"/><path d="m10.5 17v5" stroke-linejoin="round"/><path d="m9.5 8.5h2" stroke-linejoin="round"/><path d="m19.5 11-6 6m6 0-6-6"/></g></g></svg>