<svg viewBox="0 0 72 72" xmlns="http://www.w3.org/2000/svg"><path d="m51.0984 45.9794h-30.0406c-5.5116 0-9.9797-4.4681-9.9797-9.9797 0-5.5116 4.4681-9.9797 9.9797-9.9797h30.0406c5.5116 0 9.9797 4.4681 9.9797 9.9797 0 5.5117-4.468 9.9797-9.9797 9.9797z" fill="#d0cfce"/><circle cx="20.9228" cy="36" fill="#ea5a47" r="10.0009"/><path d="m27.5214 28.4459c4.0892 3.7129 4.3944 10.0377.6815 14.127s-10.0377 4.3943-14.127.6815" fill="#ea5a47"/><g style="fill:none;stroke:#000;stroke-linecap:round;stroke-linejoin:round;stroke-miterlimit:10;stroke-width:2"><path d="m51.0984 45.9794h-30.0406c-5.5116 0-9.9797-4.4681-9.9797-9.9797 0-5.5116 4.4681-9.9797 9.9797-9.9797h30.0406c5.5116 0 9.9797 4.4681 9.9797 9.9797 0 5.5117-4.468 9.9797-9.9797 9.9797z"/><circle cx="20.9228" cy="36" r="10.0009"/><path d="m27.5214 28.4459c4.0892 3.7129 4.3944 10.0377.6815 14.127s-10.0377 4.3943-14.127.6815"/></g></svg>